<?xml version="1.0" standalone="no"?>
<!DOCTYPE svg PUBLIC "-//W3C//DTD SVG 20010904//EN"
 "http://www.w3.org/TR/2001/REC-SVG-20010904/DTD/svg10.dtd">
<svg version="1.0" xmlns="http://www.w3.org/2000/svg"
 width="512.000000pt" height="512.000000pt" viewBox="0 0 512.000000 512.000000"
 preserveAspectRatio="xMidYMid meet">
<metadata>
Created by potrace 1.14, written by Peter Selinger 2001-2017
</metadata>
<g transform="translate(0.000000,512.000000) scale(0.100000,-0.100000)"
fill="#000000" stroke="none">
<path d="M398 4232 l-48 -3 -1 -42 c-2 -188 2 -861 6 -865 2 -3 997 -5 2210
-6 l2205 -1 -2 458 -3 459 -2160 1 c-1188 1 -2181 1 -2207 -1z"/>
<path d="M350 2984 c0 -19 0 -198 0 -399 0 -201 0 -391 0 -424 l0 -58 2210 0
2210 0 0 457 0 457 -2210 0 -2210 0 0 -33z"/>
<path d="M354 1799 c-3 -6 -7 -613 -5 -844 l1 -70 2197 2 c1209 1 2204 2 2211
3 18 0 18 910 0 911 -81 4 -4401 2 -4404 -2z"/>
</g>
</svg>
