<?xml version="1.0" encoding="UTF-8" standalone="no"?>
<svg
   width="100"
   height="100"
   version="1.1"
   desc="Created with https://tools.webdevpuneet.com/image-to-svg-converter/"
   id="svg263"
   xmlns:xlink="http://www.w3.org/1999/xlink"
   xmlns="http://www.w3.org/2000/svg"
   >
  <defs
     id="defs267">
    <linearGradient
       id="linearGradient2497">
      <stop
         style="stop-color:#fc4a1f;stop-opacity:1;"
         offset="0"
         id="stop2493" />
      <stop
         style="stop-color:#ac0d57;stop-opacity:1;"
         offset="1"
         id="stop2495" />
    </linearGradient>
    <linearGradient
       xlink:href="#linearGradient2497"
       id="linearGradient4171"
       gradientUnits="userSpaceOnUse"
       x1="73.256348"
       y1="74.150162"
       x2="233.5051"
       y2="251.18202" />
    <linearGradient
       xlink:href="#linearGradient2497"
       id="linearGradient4173"
       gradientUnits="userSpaceOnUse"
       x1="73.256348"
       y1="74.150162"
       x2="233.5051"
       y2="251.18202" />
    <linearGradient
       xlink:href="#linearGradient2497"
       id="linearGradient4175"
       gradientUnits="userSpaceOnUse"
       x1="73.256348"
       y1="74.150162"
       x2="233.5051"
       y2="251.18202" />
  </defs>
  <g
     id="g4183">
    <path
       stroke-width="1"
       opacity="0.980392"
       d="m 147.2236,263.61476 q 11.9,1.4 18,-3 l 71,-41 6.5,-6.5 4,-8 v -14 q -3.2,-9.3 -10.5,-14.5 -2.2,-3.8 -9,-3 l -22.5,13.5 16,10 -1.5,3.5 -59,34 -8.5,3 v -63.5 l -4.5,-6.5 -20.5,-11 v 86.5 q 2.1,9.4 8.5,14.5 z"
       id="path255"
       style="fill:url(#linearGradient4171);fill-opacity:1;stroke:none" />
    <path
       stroke-width="1"
       opacity="0.980392"
       d="m 91.223604,231.61476 q 16.699996,1.7 23.499996,-6.5 l -0.5,-28.5 q -7.3,6.5 -17.499996,9 v -78.49999 l 2.5,-0.5 45.999996,26.99999 8,4 h 6 l 21.5,-12.5 -74.5,-43.49999 q -5.5,-2.500003 -14.999996,-1 -9.9,3.1 -15.5,10.5 l -4,9 v 91.99999 q 2.4,9.6 9.5,14.5 z"
       id="path257"
       style="fill:url(#linearGradient4173);fill-opacity:1;stroke:none" />
    <path
       stroke-width="1"
       opacity="0.980392"
       d="m 162.7236,196.61476 6.5,-2 64,-37 9.5,-8.5 q 6.2,-6.3 4,-20.99999 -2.1,-9.9 -9.5,-14.5 l -72,-42.000003 q -6.1,-4.4 -18,-3 -10.1,2.4 -15.5,9.5 l -5,11 v 10 l 3.5,3.500003 19,11 h 2.5 V 95.114767 l 3.5,-0.5 65.5,38.500003 -1.5,3.49999 -48,27 -6.5,5.5 -1,2 v 22 z"
       id="path259"
       style="fill:url(#linearGradient4175);fill-opacity:1;stroke:none" />
  </g>
</svg>